<?xml version="1.0" standalone="no"?>
<!DOCTYPE svg PUBLIC "-//W3C//DTD SVG 20010904//EN"
 "http://www.w3.org/TR/2001/REC-SVG-20010904/DTD/svg10.dtd">
<svg version="1.0" xmlns="http://www.w3.org/2000/svg"
 width="1024.000000pt" height="1024.000000pt" viewBox="0 0 1024.000000 1024.000000"
 preserveAspectRatio="xMidYMid meet">
<metadata>
Created by potrace 1.14, written by Peter Selinger 2001-2017
</metadata>
<g transform="translate(0.000000,1024.000000) scale(0.100000,-0.100000)"
fill="#000000" stroke="none">
<path d="M3730 10103 c-27 -25 -42 -55 -79 -163 l-46 -134 -55 -18 c-215 -71
-575 -236 -806 -368 -150 -86 -427 -271 -559 -375 -161 -125 -381 -323 -504
-451 l-108 -113 -64 20 c-211 66 -437 11 -595 -146 -74 -73 -108 -126 -144
-222 -43 -115 -44 -276 -2 -395 l19 -55 -35 -59 c-65 -109 -230 -458 -295
-624 -631 -1602 -387 -3428 641 -4806 267 -359 596 -695 947 -969 133 -104
438 -309 590 -396 443 -254 971 -451 1480 -554 343 -69 617 -95 999 -95 329 0
642 27 915 80 89 17 91 16 202 -81 57 -50 119 -98 137 -107 39 -19 14 -41 219
192 87 99 165 183 173 187 8 5 97 40 198 79 758 295 1486 828 2015 1474 1004
1228 1366 2831 986 4374 -105 428 -295 902 -513 1281 l-65 114 20 28 c11 15
32 54 47 86 25 53 27 68 27 179 0 119 0 121 -38 196 -118 241 -395 335 -630
214 l-68 -35 -157 161 c-506 519 -1151 937 -1792 1162 l-105 37 -44 112 c-25
61 -54 121 -66 133 -20 20 -33 21 -377 28 -376 8 -385 7 -419 -37 -16 -20 -20
-20 -135 -8 -229 23 -502 31 -719 21 -115 -6 -222 -13 -237 -16 -23 -5 -27 -1
-33 26 -13 58 -12 58 -471 66 l-421 7 -33 -30z m430 -95 c0 -10 -37 -127 -145
-456 l-24 -73 46 3 46 3 69 260 c37 142 72 262 76 266 4 3 78 4 165 1 152 -4
157 -5 157 -26 -1 -11 -25 -133 -54 -269 -29 -136 -50 -249 -47 -250 3 -2 57
-1 119 1 l113 4 6 29 c3 16 9 29 13 29 4 0 36 -13 71 -29 61 -28 70 -29 164
-24 68 4 103 10 114 20 11 12 12 16 1 23 -16 10 -6 59 13 62 6 0 -10 4 -38 7
-48 6 -50 7 -50 36 0 19 5 29 13 28 6 -2 12 1 12 6 0 5 -12 11 -27 13 -28 3
-47 38 -21 38 7 0 22 9 31 21 17 19 20 19 35 6 12 -11 42 -16 98 -18 71 -2 84
1 103 20 26 26 55 27 79 3 14 -14 30 -16 97 -12 44 3 86 9 93 13 6 5 12 24 12
42 0 29 4 36 26 41 44 11 79 -7 82 -41 1 -17 8 -40 14 -52 6 -12 8 -32 5 -44
-3 -13 -1 -29 6 -37 18 -22 -19 -42 -79 -42 -84 0 -144 -11 -144 -27 0 -7 -7
-16 -15 -19 -18 -7 -20 -55 -3 -72 7 -7 41 -12 82 -12 63 0 73 3 99 27 l28 28
39 -23 c36 -20 51 -22 204 -22 128 0 166 3 166 13 0 7 -31 107 -70 222 -38
115 -70 215 -70 223 0 10 30 12 141 10 l142 -3 58 -165 c121 -340 107 -310
145 -310 19 0 34 4 34 8 0 5 -43 111 -95 237 -52 125 -95 230 -95 232 0 1 65
3 144 3 l143 0 103 -232 c56 -128 104 -239 107 -245 4 -9 -8 -13 -42 -13 -41
0 -46 -2 -40 -17 4 -10 10 -26 12 -35 4 -15 15 -18 61 -15 l56 2 142 -315 c79
-173 143 -320 143 -326 1 -8 -43 -14 -136 -19 -76 -3 -153 -7 -172 -8 l-34 -2
-82 204 -82 204 -7 -61 c-4 -33 -12 -62 -18 -64 -7 -3 5 -50 35 -134 26 -71
47 -135 47 -141 0 -10 -30 -13 -119 -13 -65 0 -139 -3 -164 -6 l-46 -7 -47
149 c-43 137 -64 188 -64 156 0 -8 -18 -12 -50 -12 l-50 0 0 175 0 175 -90 0
c-120 0 -119 2 -81 -195 16 -82 28 -152 26 -154 -2 -2 -26 10 -54 27 -54 34
-63 34 -387 33 l-101 -1 5 -92 c2 -51 9 -96 14 -99 6 -4 6 -9 -1 -13 -6 -4
-11 -19 -11 -32 0 -33 -51 -84 -84 -84 -14 0 -41 14 -60 30 -30 27 -34 35 -29
66 5 28 2 38 -16 50 -27 20 -28 54 -1 54 16 0 20 7 20 33 0 78 -1 78 -114 75
l-101 -3 -3 -42 c-2 -24 -7 -43 -13 -43 -5 0 -45 18 -89 40 -44 22 -91 40
-105 40 -14 0 -25 6 -25 13 0 7 -29 27 -65 45 -72 35 -72 36 -51 121 8 31 17
68 20 84 l6 27 -105 -2 -105 -3 5 -30 c11 -71 36 -317 32 -321 -2 -3 -27 -7
-55 -11 -50 -6 -51 -5 -57 23 -4 16 -8 33 -9 38 -1 6 -10 -28 -20 -75 -10 -46
-26 -122 -37 -169 -11 -47 -22 -95 -24 -107 -5 -20 -13 -21 -122 -27 -65 -4
-155 -9 -200 -12 -100 -7 -97 -18 -48 169 40 150 41 157 20 157 -8 0 -17 12
-21 28 -3 15 -11 48 -18 75 l-11 48 -83 -249 -82 -249 -232 -6 c-127 -4 -233
-5 -235 -4 -2 2 68 177 156 388 l159 384 66 3 c53 2 68 7 72 20 3 9 10 25 15
35 8 15 3 17 -51 17 -33 0 -60 4 -60 9 0 5 42 118 94 252 52 134 99 256 105
272 l11 27 175 0 c128 0 175 -3 175 -12z m1507 -1284 c15 -24 15 -29 2 -53
-27 -48 -109 -32 -109 22 0 56 76 77 107 31z m591 -197 c17 -13 15 -62 -4 -81
-37 -38 -97 -7 -92 48 5 48 54 65 96 33z m-1566 -44 c10 -9 18 -26 18 -39 0
-53 -76 -75 -105 -30 -37 56 36 115 87 69z m2631 -153 c94 -35 92 -32 71 -141
-22 -110 -31 -116 -92 -65 -89 74 -176 83 -265 26 -64 -40 -109 -133 -111
-227 -1 -115 45 -166 149 -165 57 0 106 18 176 62 25 17 51 30 57 30 15 0 15
-42 1 -130 l-12 -69 -71 -27 c-93 -35 -245 -44 -327 -21 -164 48 -232 202
-180 406 36 145 107 238 225 296 39 20 91 40 116 45 66 13 201 3 263 -20z
m1128 7 c55 -23 97 -72 115 -135 31 -104 1 -309 -62 -433 -37 -75 -86 -123
-156 -154 -54 -24 -76 -28 -153 -29 -130 0 -191 31 -238 119 -42 79 -22 306
39 444 48 107 132 179 236 201 57 12 176 5 219 -13z m717 -2 c51 -21 104 -80
120 -134 40 -130 -22 -361 -125 -472 -96 -103 -191 -141 -353 -142 -133 0
-153 6 -146 41 3 15 10 53 16 86 l12 58 31 -6 c142 -26 206 -15 270 46 45 42
45 54 1 37 -16 -6 -61 -11 -100 -11 -147 0 -227 87 -209 227 17 139 127 255
269 285 57 13 164 5 214 -15z m-7693 1 c28 -7 67 -21 87 -31 31 -15 36 -22 32
-44 -3 -14 -11 -57 -18 -96 -10 -60 -15 -70 -34 -73 -14 -2 -36 8 -59 29 -158
138 -363 20 -366 -210 -1 -100 48 -151 145 -151 55 0 129 28 186 70 34 25 76
20 68 -8 -3 -9 -10 -52 -17 -94 l-12 -77 -46 -19 c-73 -31 -150 -46 -231 -46
-203 1 -320 108 -320 293 1 223 127 403 319 457 62 17 204 17 266 0z m734 -3
c69 -22 132 -79 162 -145 32 -72 32 -204 0 -297 -57 -165 -165 -262 -333 -297
-194 -41 -365 41 -408 194 -15 54 -12 156 6 225 41 160 138 267 289 319 67 23
215 24 284 1z m1216 -12 c106 -47 147 -113 153 -246 9 -204 -82 -371 -245
-448 -58 -27 -82 -32 -164 -35 -119 -5 -187 12 -247 64 -58 49 -84 104 -90
187 l-5 68 -51 -3 -50 -3 -23 -130 c-12 -71 -25 -140 -28 -152 -5 -22 -10 -23
-104 -23 -69 0 -101 4 -103 12 -5 13 7 87 77 483 l41 240 102 3 c79 2 104 0
108 -11 2 -7 -4 -65 -16 -127 -11 -62 -20 -115 -20 -117 0 -2 24 -3 53 -3 l52
0 34 65 c48 94 143 168 248 195 69 17 222 7 278 -19z m738 14 c32 -8 68 -22
82 -31 90 -59 74 -207 -30 -273 l-44 -28 39 -32 c41 -33 65 -89 56 -133 -3
-13 -7 -35 -10 -49 -6 -26 -5 -26 63 -31 37 -3 74 -9 80 -13 8 -4 -19 -20 -68
-40 -45 -18 -116 -55 -159 -81 l-77 -47 -120 -3 c-179 -4 -377 -14 -405 -20
-14 -3 2 10 35 27 l60 33 -33 9 c-27 8 -32 14 -28 31 3 12 10 54 17 94 14 85
16 86 115 40 145 -68 290 -40 310 58 10 53 -12 64 -130 64 -71 0 -107 4 -114
13 -7 8 -7 32 1 77 l12 65 105 5 c58 3 115 11 127 18 31 17 40 59 19 80 -27
28 -154 21 -242 -11 -39 -15 -79 -27 -88 -27 -19 0 -21 32 -5 113 l12 57 54
16 c123 36 272 44 366 19z m1945 -27 c5 -18 24 -90 43 -160 19 -71 37 -128 40
-128 4 0 51 72 105 160 l99 160 113 0 c89 0 114 -3 118 -14 3 -8 -23 -175 -57
-370 l-63 -356 -103 0 c-100 0 -103 1 -103 23 0 12 14 98 30 191 17 93 29 171
26 173 -2 2 -34 -46 -71 -106 l-66 -111 -74 0 -74 0 -10 38 c-6 20 -18 69 -27
107 -9 39 -20 73 -24 78 -6 7 -18 -58 -62 -325 -10 -61 -13 -67 -37 -70 -21
-3 -27 -10 -34 -47 -8 -40 -10 -43 -35 -38 -15 3 -76 13 -137 22 -60 9 -120
19 -132 21 -12 2 -32 21 -44 41 -13 20 -47 63 -76 96 -45 51 -62 77 -50 77 5
0 291 -50 318 -55 31 -7 29 -15 89 335 22 129 43 247 46 263 l6 27 118 0 119
0 9 -32z m-565 -136 c10 -9 17 -29 17 -51 0 -30 -9 -44 -62 -96 -39 -37 -94
-77 -145 -103 -90 -47 -93 -48 -93 -28 0 8 34 30 76 50 175 83 251 182 183
238 -13 11 -17 16 -9 12 8 -4 23 -14 33 -22z m-658 -46 c-158 -75 -267 -154
-301 -218 -26 -51 -24 -52 116 -45 73 4 130 3 130 -2 0 -18 -28 -30 -95 -41
-86 -14 -94 -20 -27 -20 29 0 52 -3 52 -7 0 -4 -17 -24 -37 -45 -29 -30 -45
-38 -73 -38 -30 -1 -32 -2 -17 -11 18 -10 16 -14 -20 -51 l-38 -40 61 30 61
31 64 -24 c35 -13 118 -50 184 -83 l120 -61 -48 -20 c-27 -12 -52 -21 -55 -21
-4 0 -18 -9 -32 -20 -14 -11 -35 -20 -48 -20 -12 0 -92 20 -176 45 -85 25
-212 55 -283 66 -70 12 -135 23 -143 26 -18 6 84 59 192 101 40 16 82 33 93
37 16 6 10 10 -28 16 -83 13 -127 58 -113 114 10 40 100 130 180 180 77 48
218 116 299 145 84 30 78 22 -18 -24z m2953 -119 c10 -12 -7 -139 -21 -154
-10 -9 -370 -4 -380 6 -9 9 7 134 19 153 9 14 370 10 382 -5z m-2670 -159 c2
-12 -19 -23 -92 -48 -53 -17 -96 -32 -96 -33 0 -1 58 -1 130 1 l129 4 96 -96
c52 -53 95 -100 95 -105 0 -8 -32 -12 -202 -27 -66 -6 -68 -6 -140 39 -40 25
-117 67 -171 93 -53 27 -96 53 -94 58 6 19 173 100 241 117 82 20 100 20 104
-3z m901 -228 c59 -16 203 -73 300 -118 l85 -40 -72 -32 c-39 -18 -70 -36 -67
-40 3 -4 42 -10 87 -14 103 -8 93 -8 154 0 47 6 54 4 120 -39 39 -25 77 -47
84 -49 8 -2 18 12 25 36 l11 38 199 -1 c110 -1 201 -4 203 -6 2 -2 -5 -30 -15
-62 l-20 -58 -67 -3 -68 -3 72 -49 c76 -53 90 -59 90 -35 0 35 43 125 77 159
62 62 159 78 332 56 41 -6 76 -11 77 -13 2 -2 -4 -28 -12 -59 l-16 -56 -102 5
c-98 5 -103 5 -131 -20 l-30 -25 85 0 c133 1 170 -28 157 -122 -6 -48 -38 -95
-80 -117 -20 -10 -68 -19 -125 -22 l-94 -6 64 -37 c89 -50 169 -120 258 -223
80 -93 193 -245 186 -252 -2 -2 -45 24 -95 59 -50 35 -126 85 -170 111 -74 45
-82 54 -132 138 -72 120 -141 205 -188 228 -43 23 -68 55 -73 97 -3 33 -38 48
-38 17 0 -10 -6 -29 -13 -43 -12 -23 -10 -30 47 -100 72 -88 147 -193 141
-198 -2 -2 -70 19 -152 48 -147 52 -236 77 -345 100 l-57 11 -61 90 c-33 49
-60 91 -60 94 0 2 65 1 145 -2 129 -5 145 -4 151 11 13 35 -13 46 -112 46 -77
0 -94 3 -94 15 0 12 -17 15 -90 15 l-90 0 -45 41 -44 41 -98 4 -98 5 24 -20
c13 -12 37 -21 53 -21 45 0 66 -16 79 -60 7 -22 17 -40 24 -40 17 0 127 -128
167 -195 20 -33 46 -93 58 -134 30 -98 24 -158 -28 -265 -38 -78 -42 -83 -127
-140 -128 -87 -247 -121 -451 -131 -119 -6 -167 -4 -230 8 -43 9 -110 21 -147
27 -87 14 -299 97 -397 156 -273 164 -404 312 -440 498 -9 44 -20 81 -26 83
-5 2 -38 -26 -73 -61 l-63 -64 17 -53 c9 -30 28 -71 41 -91 31 -48 30 -56 -3
-64 -15 -4 -65 -25 -111 -46 l-84 -40 20 -21 c11 -12 22 -31 24 -43 3 -20 9
-19 121 32 l119 53 54 -58 c29 -32 69 -69 89 -82 19 -13 35 -28 35 -32 0 -5
-15 -20 -32 -35 -80 -66 -331 -297 -414 -380 l-91 -92 -44 31 c-52 37 -289
272 -289 287 0 6 35 29 78 52 42 24 79 44 80 46 8 6 -65 63 -82 64 -10 0 -41
-21 -70 -46 -83 -76 -140 -89 -182 -43 -15 16 -16 25 -6 58 7 21 19 44 27 51
12 10 12 17 3 34 -16 29 -98 229 -98 238 0 4 19 13 43 19 61 18 63 23 34 68
-24 36 -30 39 -60 34 -32 -5 -34 -3 -41 27 -3 18 -6 59 -6 92 0 33 -5 68 -10
78 -9 17 -91 80 -104 80 -15 0 -37 -154 -34 -239 l3 -93 -80 -30 c-44 -16
-111 -39 -150 -53 -38 -13 -115 -42 -170 -65 -55 -23 -108 -44 -117 -47 -10
-3 -18 -7 -18 -10 0 -4 43 -64 61 -87 4 -4 78 22 165 59 210 90 326 129 335
113 4 -6 10 -27 14 -45 8 -44 75 -186 127 -271 37 -60 39 -67 23 -77 -71 -43
-395 -262 -482 -326 -96 -72 -114 -89 -89 -89 37 0 6 -42 -62 -86 -122 -79
-137 -91 -198 -159 -34 -38 -85 -96 -113 -128 -53 -59 -60 -81 -38 -111 13
-17 17 -15 67 35 29 30 94 89 144 131 l91 77 30 -37 c110 -134 333 -349 438
-420 26 -18 47 -39 47 -46 0 -7 -15 -30 -33 -52 -58 -69 -288 -397 -370 -528
-21 -34 -42 -65 -47 -70 -10 -10 -92 55 -274 215 -123 109 -218 208 -321 332
l-44 52 25 32 c39 51 14 69 -49 37 -18 -9 -67 -43 -110 -75 -43 -33 -86 -59
-96 -59 -10 0 -32 -19 -49 -42 -17 -24 -43 -56 -56 -72 l-24 -29 -64 54 c-35
29 -83 72 -108 95 -25 23 -79 70 -121 105 -106 89 -267 233 -268 240 -2 18
377 419 396 419 4 0 19 -35 31 -78 60 -195 234 -544 263 -526 16 9 69 96 69
111 0 7 -15 36 -33 65 -53 85 -141 284 -177 398 -18 58 -45 130 -60 160 -15
30 -34 74 -41 98 -11 37 -10 45 2 53 12 8 12 10 0 18 -16 10 -5 35 13 28 8 -3
12 24 14 97 3 95 28 268 53 358 6 23 24 54 40 70 16 16 29 36 29 44 0 25 20
56 64 103 l41 43 -33 -17 c-19 -9 -36 -15 -38 -13 -2 3 12 29 31 59 34 54 34
54 14 75 -30 32 -61 131 -53 168 8 37 57 137 88 179 11 16 47 47 79 69 32 22
62 50 67 64 13 33 23 30 45 -10 18 -32 18 -36 2 -78 -20 -52 -21 -68 -5 -102
18 -40 40 -40 99 0 81 54 232 126 339 161 225 74 270 85 270 62 0 -6 12 -2 28
9 15 11 45 25 67 30 67 18 318 42 437 42 l112 0 -40 -42 c-51 -54 -105 -129
-99 -138 3 -4 24 -10 47 -13 24 -2 50 -8 58 -11 10 -4 38 21 90 80 89 102 115
118 179 109 200 -29 581 -109 581 -123 0 -3 -16 -29 -36 -59 -40 -61 -71 -77
-129 -69 -87 12 -433 27 -488 21 l-57 -7 24 -19 c13 -10 26 -29 30 -42 l6 -24
197 -1 c109 -1 228 -5 264 -8 l67 -6 -6 -67 c-8 -108 -7 -107 -109 -115 -48
-4 -125 -15 -171 -25 -77 -16 -82 -18 -65 -33 10 -9 37 -25 61 -37 38 -19 49
-21 98 -12 64 12 90 28 198 125 110 98 162 155 202 223 20 32 49 72 66 90 46
47 148 96 277 133 113 31 115 32 290 27 195 -6 298 -22 439 -70 90 -30 93 -30
127 -14 20 9 47 17 60 17 66 0 3 41 -117 76 -26 8 -50 19 -53 25 -4 5 1 44 10
85 12 55 20 74 30 70 8 -3 32 -10 54 -16z m-2654 -65 c-27 -20 -74 -43 -105
-51 -30 -8 -68 -20 -84 -25 -43 -14 -43 -4 1 14 21 9 79 34 128 56 112 50 124
51 60 6z m5005 -202 c0 -5 -8 -35 -18 -68 l-18 -60 -115 1 c-107 1 -128 -4
-129 -28 0 -5 29 -8 65 -8 74 0 128 -18 144 -48 31 -59 -1 -147 -69 -186 -31
-19 -51 -21 -175 -20 -77 0 -152 6 -167 12 -26 11 -26 12 -13 54 8 27 18 42
26 40 8 -2 48 -6 90 -9 69 -5 78 -4 98 16 47 47 -15 79 -130 67 -40 -4 -59 -2
-59 5 0 13 60 220 67 232 2 4 94 7 204 7 109 0 199 -3 199 -7z m444 -30 c-19
-80 -46 -122 -159 -253 l-120 -139 -87 0 c-49 -1 -88 3 -88 8 0 6 43 66 96
135 l95 126 -95 0 c-53 0 -96 3 -96 6 0 11 32 128 36 136 3 5 100 8 215 8
l209 0 -6 -27z m572 -60 l19 -68 73 -3 c39 -2 72 -6 72 -10 0 -4 -25 -23 -55
-42 -30 -19 -55 -42 -55 -51 0 -9 9 -41 19 -72 11 -32 16 -57 12 -57 -5 0 -31
18 -59 40 -27 22 -53 40 -57 40 -3 0 -32 -18 -62 -40 -31 -22 -58 -38 -61 -36
-2 3 5 30 17 61 12 31 21 62 21 70 0 8 -25 31 -55 52 -30 21 -54 42 -55 47 0
5 34 6 75 4 l75 -5 22 69 c12 37 25 68 28 68 4 0 15 -30 26 -67z m-1518 -88
c8 -8 -25 -99 -39 -108 -9 -6 -52 -7 -111 -2 l-96 7 14 46 c8 26 16 52 18 57
3 9 205 9 214 0z m-5730 -77 c17 -17 15 -64 -4 -82 -35 -36 -94 -9 -94 43 0
35 17 51 55 51 17 0 36 -5 43 -12z m6857 -28 c38 -73 38 -71 -26 -165 -60 -89
-69 -118 -46 -147 11 -15 19 -14 86 13 41 17 81 29 89 27 8 -2 21 -20 28 -40
11 -32 10 -37 -4 -43 -32 -13 -317 -117 -368 -135 l-52 -18 -46 118 c-25 66
-46 127 -46 137 0 59 72 123 138 123 36 0 92 -27 92 -45 0 -5 13 13 28 40 36
65 101 165 107 165 2 0 11 -13 20 -30z m-7689 -53 c95 -48 152 -143 138 -229
-9 -53 -55 -130 -91 -151 -17 -10 -51 -19 -75 -20 -42 -2 -43 -1 -46 31 -4 40
12 62 43 62 13 0 34 13 48 30 59 70 39 145 -53 193 -120 62 -220 6 -220 -123
0 -34 4 -42 26 -50 14 -6 27 -10 29 -10 2 0 10 18 16 41 7 23 19 43 26 46 18
7 73 -16 73 -31 0 -22 -59 -161 -70 -164 -6 -2 -47 9 -91 25 -93 32 -99 41
-99 136 1 107 47 193 124 229 57 26 153 20 222 -15z m962 -159 c-23 -35 -61
-97 -83 -138 -35 -65 -51 -82 -130 -142 -49 -37 -129 -104 -177 -149 -89 -81
-112 -93 -60 -29 16 19 40 53 54 75 33 53 197 228 327 348 57 54 105 97 107
97 3 0 -14 -28 -38 -62z m4643 -113 c244 -88 335 -123 391 -155 50 -27 59 -36
68 -73 6 -23 17 -60 25 -82 17 -47 31 -175 20 -175 -4 0 -58 33 -119 73 -126
84 -262 161 -418 238 -102 50 -108 55 -108 84 0 16 -7 54 -14 83 -14 52 -14
52 9 52 12 0 78 -20 146 -45z m2683 -85 l18 -70 74 0 c41 0 74 -3 74 -7 0 -5
-27 -25 -59 -46 l-59 -38 23 -70 c15 -42 20 -69 13 -69 -6 0 -29 15 -52 33
-63 51 -61 51 -121 6 -31 -23 -58 -39 -61 -36 -4 3 5 36 19 72 l25 65 -59 42
c-32 23 -59 45 -59 50 0 4 33 5 74 1 l74 -6 23 72 c13 39 26 71 29 71 3 0 14
-31 24 -70z m-1472 -7 c39 -35 7 -98 -48 -91 -18 2 -34 13 -43 29 -13 24 -13
29 2 53 20 30 61 35 89 9z m-7007 -78 c110 -38 204 -71 208 -75 7 -6 -72 -282
-84 -295 -10 -9 -79 16 -79 28 0 7 13 56 30 107 16 52 30 98 30 101 0 9 -79
31 -89 25 -5 -3 -12 -18 -16 -33 -3 -16 -16 -59 -27 -96 -20 -69 -21 -69 -51
-63 -17 4 -35 10 -39 14 -7 7 10 74 48 193 3 13 -7 21 -42 33 -26 9 -51 16
-55 16 -4 0 -22 -52 -40 -116 l-34 -116 -39 7 c-22 3 -42 8 -44 10 -4 4 69
259 89 314 5 12 15 21 22 18 6 -2 102 -35 212 -72z m8025 5 c64 -33 103 -106
103 -193 0 -126 -106 -207 -270 -207 -91 0 -148 32 -183 100 -43 87 -31 170
35 236 78 78 228 109 315 64z m-2317 -71 c23 -12 57 -32 77 -44 19 -12 80 -48
135 -81 121 -71 216 -132 313 -204 l73 -53 -7 -41 c-7 -42 -92 -236 -103 -236
-4 0 -58 50 -121 111 -142 137 -345 317 -427 377 l-61 46 24 35 c13 20 27 53
30 74 4 20 11 37 16 37 5 0 28 -10 51 -21z m-4743 -60 c-11 -39 -35 -184 -45
-276 -4 -34 -1 -112 5 -175 l12 -113 -43 -34 c-61 -49 -249 -238 -343 -347
-44 -51 -85 -90 -92 -87 -18 7 -27 221 -14 328 14 122 56 282 86 327 37 57
258 277 354 351 46 36 86 65 87 63 1 -1 -2 -18 -7 -37z m5521 -28 c30 -22 79
-57 109 -79 31 -22 97 -77 147 -121 69 -61 93 -89 101 -118 6 -21 22 -76 36
-123 24 -79 60 -279 53 -287 -2 -2 -33 27 -68 64 -115 122 -212 215 -315 300
l-101 84 -7 92 c-3 51 -13 117 -21 147 -26 96 -18 101 66 41z m-2521 -68 c14
-10 68 -41 122 -68 l97 -50 -94 -180 -93 -180 -43 -7 c-24 -3 -68 -7 -97 -7
-49 -1 -53 1 -68 32 -19 38 -104 111 -156 134 -21 9 -38 20 -38 24 0 11 323
319 335 319 6 0 22 -8 35 -17z m1600 -60 c41 -28 150 -122 224 -192 91 -86
319 -319 329 -336 7 -13 -46 -70 -117 -127 -47 -37 -150 -97 -158 -92 -4 3
-24 33 -43 67 -73 128 -259 400 -357 521 -27 33 -48 63 -48 67 0 4 19 18 43
32 23 14 53 37 66 51 29 31 30 31 61 9z m1349 -90 c47 -70 49 -74 14 -36 -38
42 -94 131 -75 120 5 -4 33 -41 61 -84z m-7038 -9 c118 -31 218 -59 222 -63 8
-8 -33 -188 -55 -244 -18 -45 -54 -67 -112 -67 -71 0 -118 33 -131 92 l-7 28
-36 -19 c-54 -27 -182 -74 -188 -69 -2 3 1 30 7 61 l12 56 93 31 c65 22 100
40 114 57 36 47 28 58 -59 78 -106 24 -105 23 -91 74 6 22 12 41 14 41 2 0
100 -25 217 -56z m7503 -13 c25 -27 17 -72 -15 -90 -24 -13 -29 -13 -53 2 -17
12 -26 26 -26 44 0 55 59 83 94 44z m823 -94 c11 -59 24 -128 28 -155 l6 -48
-218 -32 c-120 -18 -223 -32 -229 -32 -12 0 -30 68 -21 76 3 3 85 18 183 35
98 17 180 31 181 33 2 2 -6 47 -17 102 -11 54 -18 104 -16 110 4 12 48 23 71
19 6 -1 20 -49 32 -108z m-3863 88 c35 -15 121 -36 199 -49 35 -7 37 -9 37
-45 0 -21 -3 -53 -6 -70 l-7 -32 -70 6 c-64 5 -76 2 -138 -26 l-67 -31 -56 26
-55 26 25 56 c46 105 74 154 88 154 7 0 30 -7 50 -15z m-1400 -128 c61 -62
144 -139 184 -171 l73 -58 -33 -38 c-18 -22 -82 -92 -143 -158 -60 -65 -135
-149 -165 -186 -58 -73 -170 -199 -180 -204 -26 -11 -490 425 -490 461 0 14
49 54 249 204 116 88 372 262 385 263 5 0 59 -51 120 -113z m2296 63 c-10 -35
-101 -144 -111 -133 -6 8 -49 119 -49 128 0 3 17 5 38 6 20 0 55 6 77 14 56
18 55 18 45 -15z m3404 -60 l18 -69 77 -3 76 -3 -62 -42 -62 -43 24 -70 c13
-38 20 -70 16 -70 -5 0 -31 18 -59 40 -27 22 -54 40 -58 40 -4 0 -34 -18 -66
-41 -32 -22 -58 -36 -58 -30 0 6 9 34 20 63 11 29 20 58 20 65 0 7 -25 29 -55
50 -30 21 -54 41 -55 46 0 4 33 7 74 7 l74 0 22 65 c12 36 25 65 29 65 4 0 15
-31 25 -70z m-3687 34 c15 -3 27 -20 42 -59 12 -31 21 -58 21 -60 0 -12 -72
-3 -121 14 -30 10 -71 21 -91 25 -21 4 -38 11 -38 17 0 18 -44 28 -61 13 -24
-21 -29 -17 -29 24 l0 39 128 -4 c70 -2 137 -6 149 -9z m545 -195 c124 -181
241 -375 236 -390 -4 -11 -256 -99 -284 -99 -7 0 -16 12 -19 28 -24 110 -40
144 -116 242 -22 28 -28 49 -33 105 -3 39 -10 85 -17 103 -11 31 -9 37 26 87
33 48 74 77 99 71 6 -1 54 -67 108 -147z m1012 72 c67 -55 337 -330 387 -395
15 -19 22 -41 21 -70 -1 -83 -58 -236 -135 -360 l-24 -38 -33 53 c-18 30 -78
118 -134 197 -55 78 -116 163 -133 188 -18 25 -53 69 -79 97 -80 89 -79 87
-44 144 33 53 79 175 80 209 0 19 8 34 17 34 3 0 37 -26 77 -59z m-2923 34
c78 -27 176 -137 140 -159 -4 -3 -34 5 -66 17 -71 27 -199 142 -168 150 33 9
49 7 94 -8z m-111 -35 c11 -11 20 -24 20 -30 0 -16 53 -60 100 -84 85 -43 145
-50 298 -38 76 7 151 12 167 12 l29 0 -29 -30 c-18 -19 -39 -30 -57 -30 -15 0
-50 -9 -78 -20 -28 -11 -72 -20 -98 -20 -26 0 -56 -7 -66 -15 -11 -8 -32 -15
-48 -15 -22 0 -28 5 -28 21 0 11 5 29 10 40 9 16 7 19 -10 19 -24 0 -29 -10
-39 -76 l-7 -49 -39 3 c-23 2 -44 10 -50 19 -5 9 -26 35 -46 58 -20 24 -40 56
-43 71 -4 16 -13 32 -19 36 -10 6 -19 124 -10 141 7 12 22 8 43 -13z m3587
-95 c9 -16 33 -55 53 -85 114 -169 211 -441 226 -633 l6 -82 -59 105 c-76 134
-102 175 -180 283 l-63 88 -5 113 c-4 102 -22 227 -40 281 -9 27 40 -28 62
-70z m-2229 54 c37 -14 25 -21 -26 -14 -40 5 -52 3 -76 -16 -34 -27 -32 -56 8
-141 14 -30 26 -60 26 -66 0 -7 10 -14 23 -17 13 -4 28 -19 34 -36 9 -23 17
-29 42 -29 26 0 31 -4 31 -24 0 -28 13 -39 61 -55 20 -6 45 -21 54 -31 10 -11
24 -20 32 -20 7 0 16 -6 19 -14 8 -21 53 -35 104 -32 55 3 66 9 85 46 18 36
29 100 17 100 -18 0 -62 -49 -62 -69 0 -58 -73 -68 -134 -17 -23 18 -56 41
-73 50 -18 9 -33 23 -33 30 0 18 31 29 44 16 5 -5 20 -10 33 -10 25 0 31 9 57
97 21 68 20 83 -4 83 -21 0 -37 -38 -27 -64 3 -8 0 -22 -8 -32 -11 -15 -18
-17 -40 -9 -39 14 -53 39 -37 65 6 11 12 38 12 59 0 22 3 42 8 44 6 4 77 -5
111 -14 19 -5 42 52 24 58 -21 7 -16 43 6 43 38 0 62 -32 67 -90 17 -180 18
-184 46 -198 33 -15 68 -74 68 -113 0 -17 6 -32 15 -35 17 -7 21 -34 4 -34 -6
0 -9 -15 -7 -37 2 -31 -1 -39 -22 -50 -36 -18 -98 -16 -161 6 -30 10 -70 21
-90 25 -20 3 -46 17 -59 31 -12 13 -35 27 -50 30 -15 3 -39 23 -56 44 -35 48
-119 111 -157 118 -21 4 -34 18 -52 52 -13 25 -36 64 -51 86 -40 59 -40 132 1
175 29 30 30 30 100 24 38 -4 80 -10 93 -15z m-398 -30 c11 -26 11 -32 -1 -39
-8 -6 -20 -4 -30 6 -24 21 -43 17 -80 -16 -17 -17 -37 -29 -43 -27 -6 3 -21 1
-33 -4 -19 -7 -23 -16 -23 -53 0 -41 -3 -46 -26 -52 -17 -4 -31 -18 -40 -40
-27 -65 -84 -34 -84 45 0 37 6 54 25 75 14 15 25 37 25 49 0 12 3 33 7 46 5
20 10 22 39 18 18 -3 47 -16 63 -28 24 -18 34 -20 43 -11 7 7 20 12 29 12 9 0
37 11 60 25 24 14 47 25 50 25 4 0 12 -14 19 -31z m150 9 c0 -20 -12 -32 -43
-46 -44 -19 -57 -15 -57 16 0 16 3 32 7 35 12 13 93 8 93 -5z m237 -33 c14
-10 32 -13 47 -9 32 8 43 -13 19 -38 -15 -14 -35 -20 -83 -21 -61 -2 -63 -1
-73 26 -17 51 40 77 90 42z m-4464 -77 c-7 -40 -16 -156 -20 -258 -5 -166 -8
-188 -27 -215 -11 -16 -24 -31 -28 -33 -5 -2 -8 -9 -8 -15 -1 -7 -12 -25 -26
-42 l-26 -30 7 140 c4 77 13 188 20 246 12 101 15 112 64 193 29 47 54 86 55
86 2 0 -3 -33 -11 -72z m7890 10 c13 -51 29 -280 21 -287 -5 -4 -108 -14 -228
-20 -238 -14 -236 -14 -236 41 0 33 -1 32 221 49 l157 12 -4 36 c-16 141 -20
182 -16 186 3 3 22 5 43 5 30 0 38 -4 42 -22z m-8527 -29 c-3 -17 -6 -37 -6
-44 0 -7 -14 -15 -32 -19 -42 -8 -66 -32 -74 -72 -9 -48 3 -83 31 -96 34 -15
49 -1 89 86 41 90 82 126 140 126 95 0 147 -74 128 -182 -17 -92 -57 -134
-134 -140 -33 -3 -33 -3 -33 41 0 42 2 45 32 53 26 7 35 16 44 48 15 49 0 90
-31 90 -15 0 -31 -22 -65 -90 -51 -102 -84 -130 -151 -130 -51 0 -102 32 -127
80 -14 27 -17 49 -13 98 10 113 71 181 165 182 43 0 43 0 37 -31z m4617 22
c30 -12 45 -58 23 -75 -8 -6 -16 -22 -18 -36 -2 -21 -10 -26 -43 -30 -22 -3
-59 -15 -82 -28 -34 -18 -43 -19 -43 -8 0 23 22 66 33 66 20 0 57 44 57 66 0
13 10 30 22 38 26 19 21 18 51 7z m-912 -130 c57 -37 157 -92 221 -121 108
-49 117 -55 103 -70 -8 -9 -15 -24 -15 -34 0 -10 -11 -32 -25 -50 -14 -18 -25
-39 -25 -47 0 -8 -9 -25 -20 -39 -11 -14 -20 -34 -20 -46 0 -11 -4 -24 -10
-30 -5 -5 -19 -36 -30 -69 -11 -32 -28 -67 -38 -78 -12 -14 -17 -37 -17 -86
-1 -53 -8 -82 -35 -144 -21 -49 -39 -77 -49 -77 -51 0 -656 339 -656 367 0 11
123 171 222 288 89 106 180 214 216 259 21 25 46 46 56 46 10 0 65 -31 122
-69z m452 -29 c-6 -25 -25 -27 -68 -8 l-30 13 40 8 c22 3 45 8 50 9 14 4 15 3
8 -22z m4963 -59 c5 -43 8 -197 9 -343 l0 -265 -116 -3 -116 -3 -7 298 c-4
164 -9 317 -12 340 l-6 42 54 4 c29 2 83 4 120 5 l66 2 8 -77z m-2448 -147
c166 -220 286 -408 277 -435 -14 -45 -390 -341 -414 -327 -5 3 -20 41 -34 85
-28 86 -139 329 -242 527 l-65 127 37 17 c52 23 163 102 226 160 47 44 54 47
69 33 9 -8 75 -92 146 -187z m-2308 186 c0 -15 -24 -32 -47 -32 -25 0 -29 10
-11 28 13 13 58 16 58 4z m-60 -67 c0 -16 -11 -32 -30 -47 -36 -26 -38 -43 -7
-52 l22 -6 -25 -20 c-28 -22 -18 -25 28 -9 37 13 72 -2 72 -31 0 -11 6 -20 14
-20 8 0 23 -3 33 -7 13 -4 11 2 -10 24 -29 31 -27 43 8 43 46 0 93 -28 100
-59 5 -23 13 -31 37 -36 17 -4 32 -15 35 -24 3 -13 12 -16 34 -13 29 4 37 -5
20 -23 -14 -16 -51 -129 -51 -158 0 -32 -5 -33 -71 -7 -60 24 -79 21 -79 -14
0 -14 -4 -28 -10 -31 -5 -3 -10 -18 -10 -33 l0 -27 19 24 c18 24 41 22 41 -4
0 -7 12 -15 27 -17 39 -4 39 -23 0 -52 l-35 -27 -47 26 c-52 27 -76 31 -106
15 -25 -14 -24 -30 1 -30 27 0 101 -30 125 -51 11 -9 39 -34 63 -55 53 -46 72
-81 72 -133 0 -39 -1 -41 -42 -52 -29 -7 -59 -27 -93 -61 -65 -65 -98 -82
-148 -75 -39 5 -82 36 -92 66 -3 9 -18 24 -35 33 -33 19 -41 57 -15 78 8 7 15
19 15 26 0 8 11 20 25 26 24 11 29 25 37 97 5 42 -20 35 -27 -8 -4 -24 -16
-48 -29 -58 -12 -10 -31 -37 -41 -61 -16 -36 -16 -48 -6 -83 8 -25 20 -43 31
-46 11 -3 28 -20 39 -39 11 -19 27 -34 34 -34 8 0 21 -8 30 -18 13 -14 34 -18
97 -20 l80 -2 0 29 c0 21 11 39 44 69 24 22 54 45 67 52 51 26 79 62 79 101 0
30 -9 47 -45 87 -50 55 -53 68 -27 123 12 27 23 39 38 39 14 0 26 10 33 28 7
15 27 45 46 66 l33 40 27 -18 c15 -10 29 -15 32 -13 3 3 -14 18 -38 33 l-43
27 -14 -22 c-8 -11 -25 -21 -38 -21 -36 0 -30 37 12 85 30 33 37 38 52 27 9
-6 53 -34 97 -60 105 -64 145 -92 204 -141 27 -23 63 -46 80 -52 17 -6 31 -18
31 -26 0 -21 -19 -53 -31 -53 -6 0 -47 31 -92 68 -45 37 -99 81 -120 96 l-38
29 -24 -23 c-16 -15 -32 -21 -49 -18 -17 4 -26 1 -26 -8 0 -7 -13 -25 -30 -41
-36 -34 -37 -51 -6 -81 27 -25 56 -20 56 9 0 24 42 41 77 33 18 -5 24 -3 19 5
-4 6 -17 11 -30 11 -29 0 -61 24 -52 38 4 7 15 12 26 12 10 0 20 7 24 15 12
32 52 13 151 -74 27 -24 52 -53 55 -65 6 -23 36 -32 75 -22 22 6 55 54 55 80
0 6 -23 34 -52 63 -51 51 -51 53 -33 73 10 11 26 20 37 20 10 0 18 6 18 14 0
14 28 21 114 28 21 2 34 12 46 33 13 24 24 31 54 33 41 4 44 8 54 78 9 59 7
59 160 18 7 -2 12 -21 12 -49 0 -55 13 -52 28 7 6 24 20 48 31 55 17 11 21 9
30 -19 6 -17 11 -60 11 -95 0 -47 5 -72 18 -91 37 -53 33 -56 -11 -12 -25 25
-52 50 -60 57 -8 7 -17 17 -19 24 -8 25 -28 -3 -28 -40 0 -36 1 -37 29 -33 21
3 33 -2 45 -19 9 -13 16 -31 16 -40 0 -8 11 -21 24 -28 22 -12 72 -70 64 -75
-1 -1 -18 -13 -35 -25 -37 -25 -43 -50 -13 -58 26 -7 25 -28 -2 -47 -28 -20
-48 -20 -48 -2 0 8 -10 27 -23 42 -20 23 -28 25 -56 19 -31 -6 -33 -9 -27 -38
8 -38 23 -57 47 -57 14 0 19 -7 19 -25 0 -27 -41 -55 -80 -55 -18 0 -21 -4
-15 -28 4 -22 0 -33 -21 -52 -14 -14 -32 -37 -40 -52 -11 -22 -22 -28 -48 -28
-35 0 -59 -20 -70 -57 -8 -24 -163 -189 -215 -227 -31 -23 -71 -38 -289 -106
-41 -12 -76 -29 -79 -36 -3 -8 -17 -13 -32 -12 -38 3 -47 -6 -66 -62 -17 -52
-21 -56 -45 -40 -12 7 -13 15 -3 40 14 36 18 33 -86 55 -89 18 -256 98 -284
136 -17 24 -18 30 -6 63 13 36 13 36 -36 86 -54 54 -70 61 -78 30 -8 -31 -30
-24 -68 23 -32 37 -47 65 -95 172 -7 17 -15 55 -18 85 -2 30 -8 70 -11 87 -4
18 -4 41 0 50 3 10 8 52 10 94 7 111 47 259 71 259 18 0 44 40 44 68 0 25 37
82 54 82 5 0 19 9 31 20 21 20 55 19 55 -1 0 -15 43 -49 62 -49 15 0 16 4 7
24 -6 13 -22 29 -35 35 -29 13 -30 21 -4 44 30 25 16 47 -26 40 -46 -8 -45 11
5 66 42 47 88 81 109 81 6 0 12 -11 12 -25z m781 -27 c21 -17 39 -37 39 -43 0
-7 -18 -19 -41 -28 -38 -15 -46 -37 -14 -37 7 0 18 -13 24 -30 8 -24 16 -30
38 -30 15 0 43 -4 60 -9 20 -6 35 -6 38 0 4 5 1 9 -4 9 -6 0 -11 12 -11 26 0
26 1 26 23 10 12 -9 37 -23 55 -31 32 -15 32 -15 26 -73 -8 -70 -21 -87 -57
-73 -19 8 -29 7 -34 -2 -13 -19 -46 -44 -70 -51 -19 -6 -23 -2 -32 30 -13 47
-8 52 29 30 l30 -17 11 28 c6 15 17 35 25 44 13 15 10 17 -31 22 -25 4 -64 17
-88 29 -23 12 -69 25 -102 28 -57 5 -60 6 -63 34 -3 23 -1 28 13 22 9 -3 28
-9 41 -12 34 -9 32 21 -3 40 -39 21 -85 65 -78 77 8 12 42 12 50 -1 12 -19 45
-10 57 15 14 32 21 32 69 -7z m3474 -253 l0 -170 -170 3 c-93 1 -198 5 -232 8
l-63 6 0 149 0 149 45 0 45 0 0 -110 0 -110 50 0 50 0 0 104 0 104 28 4 c50 7
52 3 52 -108 l0 -104 55 0 55 0 0 126 0 125 43 -3 42 -3 0 -170z m-1159 -3
c66 -101 186 -329 208 -395 15 -44 15 -57 2 -130 -18 -95 -86 -268 -147 -368
l-41 -69 -28 77 c-15 43 -37 97 -48 120 -12 23 -22 51 -22 61 0 10 -11 33 -25
52 -14 19 -25 39 -25 46 0 12 -23 58 -113 225 l-40 76 51 82 c45 74 106 235
127 335 l6 29 20 -29 c11 -16 45 -67 75 -112z m-7161 116 c2 -2 -3 -68 -11
-148 -7 -80 -14 -151 -14 -158 0 -9 -13 -12 -42 -10 l-43 3 3 61 4 61 -189 14
-188 14 4 45 c1 25 4 46 5 48 2 2 217 -18 338 -32 l36 -4 7 60 7 60 40 -5 c22
-3 41 -7 43 -9z m4379 -14 c9 -8 16 -24 16 -35 0 -22 -28 -26 -36 -4 -4 8 -12
15 -20 15 -16 0 -16 2 -8 24 8 20 28 20 48 0z m1557 -146 c80 -160 127 -265
170 -383 16 -44 40 -100 53 -125 39 -75 41 -97 9 -113 -44 -22 -240 -84 -338
-108 -113 -26 -277 -49 -288 -39 -7 6 -46 250 -47 291 0 9 19 44 41 78 51 75
64 148 32 184 -62 71 -103 157 -96 203 5 31 7 32 106 57 77 18 238 73 284 96
2 0 35 -63 74 -141z m-806 92 c0 -22 -29 -18 -33 3 -3 14 1 18 15 15 10 -2 18
-10 18 -18z m-4604 -33 c24 -23 80 -74 124 -112 44 -38 89 -78 101 -89 11 -12
41 -38 67 -59 26 -21 47 -46 47 -57 0 -29 -30 -90 -67 -137 -19 -23 -39 -55
-46 -71 -7 -15 -22 -41 -35 -58 -44 -55 -72 -99 -92 -144 -12 -25 -34 -58 -50
-75 -16 -16 -41 -55 -55 -87 -14 -31 -32 -59 -41 -62 -10 -4 -78 50 -201 157
-102 89 -195 170 -207 179 -15 13 -18 21 -11 32 6 8 59 90 119 183 60 92 128
197 151 233 24 36 64 98 89 138 25 39 50 72 55 72 5 0 28 -19 52 -43z m3943
-28 c-8 -13 -42 -11 -50 3 -4 6 1 17 12 25 16 12 20 11 31 -3 7 -9 10 -21 7
-25z m221 -1 c20 -9 26 -18 22 -35 -3 -17 0 -23 15 -23 10 0 24 -11 30 -25 6
-14 19 -25 28 -25 24 0 65 -34 57 -47 -10 -15 -76 20 -104 54 -18 22 -23 24
-23 11 0 -27 -29 -22 -40 7 -6 15 -15 23 -23 19 -16 -6 -39 39 -31 61 7 18 34
19 69 3z m2805 -144 c84 -271 163 -674 131 -674 -11 0 -41 73 -41 100 0 10
-22 86 -50 168 -46 137 -50 157 -50 243 0 52 -7 129 -15 172 -26 135 -18 132
25 -9z m769 -127 c81 -74 65 -241 -28 -304 -132 -89 -354 -23 -391 116 -24 89
13 176 92 217 35 18 34 19 51 -31 14 -39 13 -40 -17 -60 -42 -28 -54 -75 -32
-121 21 -46 66 -64 156 -64 66 0 74 2 101 29 55 55 34 148 -37 165 -28 7 -30
23 -9 72 l14 35 38 -16 c21 -9 48 -26 62 -38z m-5472 -1 c72 -59 345 -212 531
-296 67 -30 122 -58 122 -61 0 -4 -19 -12 -43 -18 -54 -13 -85 -37 -133 -102
-45 -62 -134 -156 -168 -178 -14 -9 -86 -76 -161 -149 l-135 -132 -68 34
c-159 80 -441 257 -442 277 0 10 258 394 354 527 48 67 94 122 101 122 8 0 26
-11 42 -24z m-1301 -113 c66 -91 282 -303 429 -423 66 -53 127 -105 135 -115
13 -16 10 -25 -25 -92 -51 -97 -59 -103 -93 -71 -86 78 -251 224 -333 293 -51
44 -104 90 -117 103 -13 12 -66 59 -118 103 -52 44 -94 84 -94 87 0 15 142
182 154 182 7 0 34 -30 62 -67z m-544 30 c24 -9 66 -39 93 -66 28 -27 68 -61
90 -74 22 -14 47 -33 55 -43 8 -10 52 -49 97 -88 45 -38 102 -90 128 -115 25
-25 50 -47 55 -49 5 -2 33 -24 62 -49 118 -103 238 -207 296 -254 34 -27 62
-55 62 -60 0 -6 -22 -40 -48 -75 -27 -36 -57 -79 -68 -96 -22 -36 -97 -150
-163 -247 -101 -150 -115 -177 -92 -177 12 0 99 111 126 161 32 59 86 139 94
139 4 0 15 15 24 33 9 17 33 52 52 77 55 70 95 133 95 148 0 7 8 12 18 10 22
-4 29 -48 10 -62 -8 -6 -34 -42 -58 -81 -24 -38 -58 -86 -77 -105 -18 -20 -33
-41 -33 -46 0 -6 -9 -19 -20 -29 -11 -10 -20 -23 -20 -29 0 -6 -18 -36 -40
-66 -85 -119 -140 -201 -140 -211 0 -18 120 134 165 210 6 9 33 49 60 90 28
40 58 84 67 98 9 14 21 29 26 32 5 3 22 26 38 50 51 77 61 91 67 98 4 3 28
-14 55 -38 76 -70 243 -213 258 -222 7 -4 37 -30 65 -57 l52 -50 -19 -26 c-27
-37 -64 -92 -101 -150 -17 -27 -40 -58 -50 -69 -31 -33 -103 -138 -103 -150 0
-7 -9 -20 -21 -31 -27 -24 -109 -140 -109 -153 0 -18 13 -12 36 17 22 26 23
26 37 8 14 -19 15 -19 26 2 7 14 8 23 1 27 -15 9 -12 51 5 65 12 10 18 10 30
0 21 -18 35 -3 29 30 -9 44 48 127 105 152 34 14 42 21 33 30 -16 16 -15 48 1
50 6 1 23 2 37 2 27 1 41 33 20 46 -17 10 8 80 29 80 21 0 61 -40 61 -61 0
-24 -99 -176 -139 -213 -17 -17 -31 -35 -31 -42 0 -13 22 -24 50 -24 10 0 31
-5 45 -10 22 -8 25 -13 15 -25 -14 -16 -62 -11 -98 12 -13 8 -24 13 -25 11 -1
-2 -13 -18 -26 -37 -21 -30 -22 -35 -7 -43 12 -7 16 -23 16 -63 0 -32 10 -82
26 -127 14 -40 28 -86 31 -101 3 -16 15 -35 28 -43 12 -8 28 -27 34 -42 7 -15
19 -34 27 -42 68 -73 77 -105 45 -168 -10 -20 -31 -72 -45 -115 -28 -84 -26
-106 15 -128 22 -11 69 -5 69 10 0 4 11 20 24 34 46 49 56 71 56 119 0 58 14
68 48 35 41 -38 154 -112 224 -148 35 -17 70 -39 78 -48 36 -40 240 -78 362
-67 88 8 192 42 230 75 16 13 28 28 28 32 0 4 -42 -8 -92 -26 -82 -29 -105
-33 -200 -33 -83 -1 -109 3 -119 14 -10 12 -24 14 -60 9 -54 -8 -81 3 -119 46
-24 27 -116 69 -153 69 -10 0 -22 11 -27 24 -5 13 -20 26 -35 30 -14 4 -46 22
-71 41 -25 19 -50 35 -55 35 -17 0 -20 46 -4 95 18 60 19 107 3 123 -19 19
-26 15 -54 -35 -15 -27 -31 -53 -36 -60 -13 -17 -36 -5 -52 26 -8 14 -32 47
-55 72 -38 43 -41 53 -50 128 -5 45 -14 88 -21 96 -7 9 -10 27 -7 44 4 19 1
33 -8 41 -17 14 -21 70 -5 70 5 0 31 -5 58 -11 44 -9 53 -8 86 11 25 15 36 29
36 45 0 33 -48 65 -96 65 l-39 0 28 25 c15 14 27 32 27 40 0 7 11 22 25 33 14
11 25 27 25 36 0 9 8 16 19 16 23 0 36 16 21 25 -15 10 -12 52 6 70 12 12 27
14 60 9 47 -7 54 1 32 35 -9 15 -7 28 9 67 13 32 19 63 16 89 -4 34 1 49 37
103 51 76 107 111 149 92 23 -10 28 -9 41 11 36 53 227 234 259 244 12 3 21
10 21 15 0 12 83 89 103 96 9 3 17 10 17 16 0 6 16 28 36 50 20 22 40 53 46
68 14 41 108 104 153 102 19 -1 37 3 40 8 3 6 22 10 41 10 19 0 48 7 65 15 34
18 49 13 49 -16 0 -27 26 -75 67 -127 l34 -42 -10 -84 c-16 -135 2 -174 96
-196 34 -8 88 16 99 45 9 24 47 18 91 -14 59 -43 91 -57 163 -71 84 -17 100
-26 100 -54 0 -19 9 -28 41 -40 l42 -17 -7 -54 c-3 -30 -13 -80 -21 -112 -19
-75 -152 -350 -186 -385 -15 -15 -30 -39 -33 -53 -4 -14 -22 -50 -41 -80 -19
-30 -35 -63 -35 -74 0 -11 -4 -22 -9 -26 -33 -20 -144 -219 -151 -269 -6 -47
-40 -72 -70 -54 -13 8 -23 6 -43 -12 -30 -26 -35 -48 -12 -56 35 -14 11 -54
-33 -54 -21 0 -62 -39 -62 -61 0 -9 -19 -38 -42 -64 -37 -40 -49 -47 -86 -49
-45 -2 -69 -17 -57 -35 3 -7 19 -10 33 -9 24 3 27 0 24 -24 -4 -37 9 -35 31 2
21 34 56 40 64 11 6 -24 66 -22 71 3 2 9 -2 16 -9 16 -17 0 -59 40 -59 56 0
21 39 38 55 24 8 -7 16 -7 19 -2 3 6 -1 12 -9 16 -23 8 -18 44 9 61 24 16 56
11 56 -9 0 -6 3 -21 6 -33 4 -15 0 -23 -15 -28 -32 -10 -55 -105 -26 -105 9 0
95 -71 193 -158 97 -86 186 -164 197 -172 47 -35 50 -47 19 -93 -16 -23 -45
-58 -65 -78 -32 -32 -140 -166 -221 -275 -28 -37 -36 -64 -19 -64 10 0 61 57
61 69 0 4 13 15 30 24 20 12 31 28 36 52 3 19 10 35 15 35 5 0 24 20 41 45 18
25 40 45 50 45 19 0 38 28 38 56 0 21 68 94 87 94 31 0 21 -32 -29 -101 -29
-40 -71 -90 -92 -112 -22 -22 -51 -56 -64 -76 -14 -20 -56 -71 -94 -113 -39
-43 -64 -78 -56 -78 12 0 228 247 348 397 18 24 39 43 45 43 11 0 80 -59 244
-208 46 -43 102 -89 125 -103 23 -15 47 -38 53 -52 7 -14 25 -34 40 -44 41
-26 288 -238 425 -364 l77 -71 -32 -43 c-18 -23 -120 -145 -229 -271 -108
-126 -195 -230 -193 -232 5 -5 55 21 55 29 0 8 103 125 184 209 29 30 68 77
87 103 69 97 81 112 116 145 20 18 42 31 50 28 23 -9 14 -39 -22 -72 -33 -30
-48 -74 -25 -74 6 0 10 4 10 8 0 17 72 92 88 92 18 0 159 -117 295 -243 44
-39 96 -83 118 -97 21 -14 39 -28 39 -32 0 -5 -29 -38 -65 -75 -36 -37 -65
-71 -65 -75 0 -5 -31 -41 -69 -81 -37 -39 -118 -130 -178 -202 -138 -163 -138
-163 -168 -144 -28 17 -184 149 -236 200 -21 20 -60 51 -88 69 -28 19 -51 37
-51 42 0 13 -113 122 -144 138 -15 8 -67 51 -114 96 -120 112 -177 162 -244
213 -42 32 -58 50 -58 67 0 17 -6 24 -20 24 -18 0 -25 14 -21 46 1 7 35 47 77
90 41 44 84 95 94 114 10 19 46 60 79 89 34 30 61 60 61 65 0 6 24 38 53 71
51 57 86 119 74 131 -3 3 -13 -7 -24 -22 -10 -15 -38 -48 -63 -73 -25 -25 -51
-62 -59 -81 -20 -55 -27 -65 -47 -69 -19 -3 -54 -40 -114 -118 -19 -25 -51
-62 -71 -82 -20 -20 -45 -51 -56 -70 -10 -19 -26 -39 -35 -44 -19 -12 -46 9
-290 229 -15 13 -32 24 -38 24 -6 0 -37 28 -68 63 -89 97 -124 127 -149 127
-17 0 -23 6 -23 24 0 16 -12 31 -43 51 -24 15 -51 40 -60 55 -9 15 -28 31 -42
34 -14 4 -55 36 -93 72 -37 35 -79 72 -94 81 -14 9 -32 28 -38 42 -10 22 -13
23 -21 9 -5 -9 -12 -38 -16 -65 -25 -191 -235 -323 -458 -288 -27 4 -58 14
-67 23 -12 10 -29 13 -53 9 -41 -7 -93 6 -109 27 -6 8 -33 20 -61 27 -53 12
-172 66 -182 82 -3 5 -19 6 -36 3 -40 -8 -77 15 -70 44 4 15 11 18 30 14 21
-6 24 -3 21 12 -2 14 -13 19 -38 20 -64 2 -68 4 -99 30 -22 18 -31 35 -31 55
0 31 -26 41 -36 14 -11 -28 -34 -17 -34 16 0 46 -16 69 -50 69 -32 0 -65 29
-142 124 -33 40 -48 67 -48 88 0 24 -6 32 -29 41 -27 10 -53 52 -84 137 -31
86 -22 265 16 308 8 9 17 26 21 38 3 11 19 32 34 46 35 34 161 118 176 118 6
0 28 9 49 20 42 23 44 20 20 -21 -14 -23 -15 -33 -7 -47 7 -10 15 -38 19 -62
9 -53 50 -157 73 -182 9 -11 11 -18 4 -18 -20 0 -13 -31 14 -64 14 -17 52 -66
86 -108 33 -43 63 -78 66 -78 4 0 36 -27 72 -61 36 -33 88 -75 115 -94 28 -18
66 -49 85 -69 19 -20 40 -36 46 -36 22 0 64 -42 64 -64 0 -39 24 -58 90 -72
60 -12 64 -12 80 8 13 17 20 19 37 10 30 -16 202 -6 260 16 45 16 49 16 83 0
56 -27 90 -33 90 -15 0 8 -12 22 -26 32 l-27 17 34 32 33 31 -28 3 c-15 2 -35
-3 -44 -11 -24 -21 -122 -51 -157 -48 -48 3 -52 17 -15 56 18 19 30 38 26 42
-4 5 -31 -18 -59 -50 -51 -57 -67 -63 -114 -51 -31 9 -29 20 14 72 59 73 84
112 70 112 -7 0 -21 -15 -32 -32 -15 -28 -70 -101 -116 -156 -6 -7 -24 -15
-40 -19 -16 -3 -29 -9 -29 -14 0 -13 -45 -11 -75 3 -14 6 -25 18 -25 25 0 18
54 98 120 178 59 71 113 145 106 145 -5 0 -112 -131 -138 -170 -9 -14 -25 -35
-35 -48 l-18 -22 -60 30 c-33 16 -71 30 -85 30 -34 0 -55 53 -46 115 8 49 -3
63 -28 36 -13 -14 -16 -28 -10 -56 l7 -37 -32 16 c-19 10 -31 24 -31 37 0 24
-84 114 -98 105 -27 -16 -152 115 -152 159 0 8 -11 27 -25 43 -34 40 -50 81
-69 174 -20 98 -21 147 -1 154 21 9 19 22 -6 29 -19 6 -21 12 -16 55 8 64 -10
90 -62 90 -43 0 -79 24 -179 117 -34 32 -88 78 -119 103 -50 39 -129 115 -176
168 -8 10 -47 42 -87 72 -40 30 -110 89 -154 130 -45 42 -108 98 -141 125 -66
54 -135 124 -135 136 0 5 28 49 63 99 34 50 71 105 82 123 11 18 35 52 53 76
17 24 32 48 32 53 0 4 20 34 45 66 25 31 45 63 45 70 0 19 20 14 21 -5 2 -34
-3 -46 -54 -124 -29 -43 -74 -114 -102 -156 -27 -43 -64 -95 -82 -117 -34 -41
-58 -96 -43 -96 6 0 20 15 32 34 13 18 35 51 49 72 80 118 160 246 168 267 5
14 24 41 41 61 30 33 68 126 52 126 -4 0 -13 4 -21 9 -10 7 -11 13 -1 31 8 14
8 26 2 32 -6 6 -21 -11 -43 -49 -18 -32 -47 -75 -65 -95 -18 -20 -40 -51 -49
-67 -8 -17 -59 -98 -113 -180 -53 -83 -105 -163 -114 -180 -9 -17 -24 -31 -32
-31 -16 0 -65 40 -196 160 -47 43 -111 99 -142 125 -32 26 -58 56 -58 66 0 10
-9 19 -21 21 -29 4 -47 33 -34 52 40 58 205 318 205 323 0 12 43 53 56 53 15
0 -1 -49 -34 -100 -12 -19 -22 -40 -22 -46 0 -6 -7 -17 -16 -25 -9 -7 -29 -38
-45 -68 -16 -31 -43 -74 -59 -96 -30 -42 -47 -85 -33 -85 7 0 16 12 63 90 9
14 24 39 34 55 11 17 29 46 41 65 92 146 185 316 185 336 0 16 -6 24 -17 24
-15 0 -15 2 -4 9 8 5 11 16 7 27 -4 10 -1 21 6 26 18 11 22 10 70 -9z m5943
-212 c86 -188 185 -434 192 -478 6 -34 2 -39 -93 -132 -107 -103 -247 -209
-357 -267 -38 -20 -69 -34 -71 -32 -1 1 -21 80 -44 173 -23 94 -69 252 -102
353 -33 101 -61 196 -62 210 -3 25 5 31 102 82 114 59 178 105 280 199 50 46
68 57 77 48 7 -7 42 -77 78 -156z m-6035 109 c0 -21 -31 -70 -50 -80 -18 -9
-20 -8 -20 15 0 34 28 75 51 75 11 0 19 -5 19 -10z m6640 -260 c37 -123 69
-276 71 -333 2 -53 -83 -323 -152 -486 -53 -125 -69 -150 -69 -107 0 34 -27
196 -45 271 -8 33 -26 106 -39 163 l-25 102 46 66 c44 64 143 291 158 365 10
50 16 71 21 67 2 -3 17 -51 34 -108z m-2112 -12 c7 -44 7 -77 2 -82 -5 -5 -58
-11 -117 -13 l-108 -4 28 23 c15 13 60 51 100 85 39 34 75 63 78 63 4 0 11
-33 17 -72z m2639 57 c292 -25 273 -21 273 -58 0 -63 -7 -70 -106 -116 -53
-23 -118 -52 -146 -64 -61 -25 -57 -27 101 -52 l113 -18 -5 -44 c-2 -24 -7
-46 -9 -49 -4 -4 -397 69 -441 82 -11 3 -16 12 -13 22 2 9 7 29 10 44 4 16 15
29 29 33 53 16 267 108 267 114 0 4 -59 14 -130 21 -72 7 -133 17 -136 22 -9
13 5 78 16 78 5 0 85 -7 177 -15z m-1749 -182 c39 -110 162 -623 162 -676 0
-10 -37 -30 -102 -56 -190 -75 -430 -138 -629 -165 l-87 -12 -6 55 c-3 31 -8
97 -11 146 -10 147 -36 449 -40 455 -2 3 -5 41 -6 85 l-4 79 132 22 c153 25
249 50 423 109 69 24 128 43 131 44 4 1 20 -38 37 -86z m-2335 -134 c-30 -52
-39 -54 -83 -25 -49 32 -50 53 -8 102 l32 36 38 -41 39 -41 -18 -31z m4887 89
c0 -36 -56 -300 -93 -438 l-33 -125 -122 -3 c-77 -2 -122 1 -122 7 0 6 13 57
29 113 30 103 69 269 91 383 6 33 13 66 15 73 3 9 36 12 120 12 113 0 115 0
115 -22z m-3398 -118 c20 -162 45 -583 40 -691 l-3 -66 -52 -7 c-78 -9 -518
-7 -627 4 -279 27 -326 32 -333 39 -9 9 5 118 46 338 30 159 34 173 57 184 22
10 84 29 277 83 27 7 66 34 111 75 38 35 76 67 83 72 8 5 55 9 104 10 50 1
122 5 160 9 39 4 84 7 100 6 29 -1 30 -3 37 -56z m-4903 -85 c26 -22 64 -55
85 -73 l38 -33 -58 -125 c-32 -68 -61 -121 -64 -117 -17 20 -150 433 -150 466
0 8 34 -19 149 -118z m3326 69 c13 -8 36 -14 51 -12 34 4 39 -10 15 -41 -25
-33 -75 -31 -110 3 -24 25 -24 26 -6 46 22 24 20 24 50 4z m-1550 -58 c29 -21
101 -65 245 -151 36 -21 67 -40 69 -42 12 -9 -18 -19 -77 -23 -56 -4 -67 -8
-70 -24 -3 -11 3 -25 13 -32 12 -9 15 -20 10 -36 -12 -38 -48 -108 -56 -108
-9 0 -45 30 -179 150 -52 47 -110 97 -128 110 l-32 26 46 74 c26 41 53 83 62
93 17 19 22 17 97 -37z m5935 -32 c0 -3 -5 -25 -11 -49 -11 -43 -11 -44 -63
-50 l-53 -7 -26 -91 -26 -92 41 -36 c41 -35 41 -35 28 -75 -7 -21 -15 -42 -19
-46 -3 -4 -46 29 -96 73 -49 44 -134 115 -187 157 -99 78 -113 99 -85 134 8
12 50 21 142 33 72 9 173 25 225 35 105 20 130 23 130 14z m-1084 -141 c3 -16
10 -44 15 -63 32 -133 74 -369 83 -472 6 -62 4 -72 -21 -116 -48 -84 -186
-217 -308 -299 -97 -64 -255 -156 -260 -151 -3 3 -9 92 -15 199 -9 190 -30
394 -48 475 -5 24 -6 48 -1 57 5 8 44 34 86 58 108 59 252 162 358 257 50 45
93 81 97 81 4 1 10 -11 14 -26z m-6245 -165 c78 -68 184 -158 237 -201 52 -43
114 -94 136 -113 23 -20 87 -75 144 -122 56 -48 102 -92 102 -100 0 -7 -7 -27
-16 -43 -8 -17 -35 -86 -59 -152 -73 -206 -97 -267 -107 -267 -5 0 -37 21 -70
48 -33 26 -73 57 -90 68 -62 45 -354 322 -416 394 -38 44 -84 114 -113 172
l-48 96 28 79 c16 43 48 114 70 158 23 44 41 85 41 92 0 7 5 13 10 13 6 0 74
-55 151 -122z m6967 -104 c114 -42 209 -78 211 -80 6 -5 -18 -82 -27 -88 -4
-2 -45 11 -91 30 -47 19 -88 34 -91 34 -4 0 -20 -33 -36 -72 -16 -40 -31 -76
-32 -80 -2 -5 35 -26 82 -48 47 -21 86 -44 86 -50 0 -9 -26 -68 -35 -78 -2 -3
-404 195 -413 203 -3 3 25 64 33 73 2 2 38 -13 81 -32 42 -20 79 -35 80 -33 4
4 64 145 64 150 0 3 -36 19 -80 37 -44 18 -80 33 -80 35 0 9 31 75 35 75 3 0
99 -34 213 -76z m-8304 -87 c183 -526 469 -1027 845 -1477 131 -157 419 -443
575 -570 70 -58 154 -127 185 -154 73 -63 363 -255 516 -342 146 -83 379 -195
540 -260 l120 -49 -264 -3 -265 -2 -110 56 c-237 121 -547 323 -781 508 -66
52 -142 112 -170 133 -27 21 -137 126 -245 233 -387 386 -677 788 -919 1272
-135 269 -313 713 -293 732 3 3 57 6 121 6 l116 0 29 -83z m2906 -2 c0 -8 10
-23 22 -35 l22 -20 -22 0 c-27 0 -78 43 -68 58 10 17 46 15 46 -3z m3994 -117
c28 -209 40 -360 40 -518 l1 -185 -50 -27 c-53 -28 -171 -70 -320 -113 -144
-41 -538 -116 -549 -104 -3 2 -1 49 4 104 5 55 12 231 16 392 l7 292 46 6
c243 31 552 106 716 173 75 31 83 29 89 -20z m-5937 -260 c57 -111 70 -145 60
-154 -17 -15 -349 -222 -369 -229 -12 -5 -22 4 -37 34 l-21 41 37 23 c21 13
93 56 161 96 67 40 122 77 122 82 0 5 -14 37 -31 70 -20 41 -35 59 -44 55 -8
-3 -80 -41 -161 -85 -81 -45 -152 -81 -159 -81 -15 0 -48 71 -38 81 12 12 387
208 398 208 6 1 43 -63 82 -141z m7073 100 c0 -53 -11 -68 -47 -68 -52 0 -93
-45 -93 -101 0 -37 6 -48 44 -84 51 -49 123 -81 161 -71 69 17 98 105 54 161
l-22 27 32 31 c25 26 35 30 48 21 85 -53 81 -198 -7 -278 -79 -71 -169 -72
-272 -3 -86 58 -123 118 -123 203 0 53 4 69 30 106 37 53 85 78 148 78 42 0
47 -2 47 -22z m-2925 -14 c103 -11 225 -14 459 -12 l320 2 7 -26 c4 -15 3 -95
-2 -178 -5 -83 -11 -196 -13 -253 -5 -104 -25 -319 -30 -325 -20 -19 -532 -28
-711 -12 -199 18 -397 41 -420 50 -23 9 -23 10 -10 67 17 73 28 127 65 333 33
183 70 360 78 374 2 5 30 5 61 2 31 -4 119 -14 196 -22z m-445 -51 c0 -10 -5
-36 -11 -58 -6 -22 -20 -83 -29 -135 -10 -52 -28 -138 -40 -190 -11 -52 -29
-134 -39 -181 -21 -100 -25 -109 -53 -109 -27 0 -98 21 -98 30 0 3 14 28 32
56 28 44 32 58 35 134 2 47 10 108 20 135 17 55 100 222 113 230 5 3 14 22 21
43 18 57 49 85 49 45z m-2357 -297 l59 -58 -53 -27 c-129 -66 -238 -165 -268
-244 l-11 -28 -48 33 c-27 18 -56 38 -65 43 -15 9 -12 20 19 100 20 50 49 125
64 167 16 42 43 104 60 138 l31 61 76 -63 c42 -35 103 -89 136 -122z m6577
149 c0 -12 -137 -278 -203 -395 -100 -177 -91 -170 -236 -170 -69 0 -122 4
-126 10 -3 5 23 56 58 112 89 144 137 227 196 346 l51 102 130 0 c72 0 130 -2
130 -5z m-7746 -198 c76 -126 75 -183 -7 -247 -77 -61 -147 -47 -214 44 -25
33 -49 60 -53 59 -5 -1 -34 -21 -66 -43 -31 -22 -61 -40 -65 -40 -4 0 -17 16
-30 36 -18 30 -20 38 -8 49 27 26 372 244 379 240 4 -3 33 -46 64 -98z m379
-69 c39 -35 105 -89 145 -122 39 -32 72 -61 72 -64 0 -14 -25 -72 -31 -72 -7
0 -137 148 -215 245 -77 95 -71 98 29 13z m6455 22 c17 -11 32 -23 32 -26 0
-10 -70 -123 -80 -129 -10 -6 -65 19 -75 35 -7 12 66 140 80 140 6 0 25 -9 43
-20z m-634 -32 c-23 -39 -244 -288 -255 -288 -5 0 -9 33 -9 74 l0 74 103 56
c56 30 116 64 132 76 35 23 39 24 29 8z m-2934 -29 c0 -25 -33 -22 -38 4 -2
12 3 17 17 17 15 0 21 -6 21 -21z m3386 -99 c93 -61 175 -117 182 -124 20 -19
-40 -98 -71 -92 -44 9 -289 17 -284 9 3 -4 48 -39 101 -78 52 -38 96 -76 96
-82 0 -7 -12 -26 -27 -43 l-28 -30 -174 137 c-96 76 -176 143 -178 149 -6 19
47 75 66 70 26 -8 292 -29 297 -24 2 3 -45 38 -105 79 -61 41 -110 78 -111 82
0 18 43 68 55 64 6 -3 88 -55 181 -117z m-3414 43 c26 -23 23 -36 -22 -88 -22
-25 -40 -50 -40 -56 0 -5 -9 -9 -19 -9 -21 0 -61 44 -61 67 0 19 27 28 45 13
12 -10 16 -9 21 6 15 47 36 84 46 84 6 0 20 -7 30 -17z m-3035 -124 c43 -27
69 -65 85 -122 10 -39 9 -54 -5 -100 -35 -110 -154 -207 -255 -207 -64 0 -99
17 -144 70 -75 87 -72 181 9 270 99 111 219 145 310 89z m5602 -21 c0 -18 -6
-76 -12 -128 l-12 -94 -80 -69 c-153 -133 -332 -261 -524 -377 -97 -58 -316
-172 -393 -204 -36 -14 -38 -14 -38 5 0 11 11 70 24 132 32 143 86 458 86 495
0 28 3 30 53 36 275 33 647 128 832 212 65 30 65 30 64 -8z m-3984 -44 c22
-35 15 -78 -26 -158 -40 -78 -51 -90 -78 -81 -28 9 -27 41 3 96 12 25 26 59
30 77 3 18 9 46 12 62 8 38 35 40 59 4z m-1013 -44 l65 -45 6 -80 c3 -44 9
-89 13 -99 7 -19 6 -19 -22 1 -16 12 -62 52 -103 90 l-74 68 19 58 c10 31 21
56 24 55 4 -2 36 -23 72 -48z m2481 -61 l57 -12 -6 -36 c-10 -65 -12 -66 -57
-25 -23 22 -58 52 -77 67 l-35 29 30 -6 c17 -3 56 -11 88 -17z m2777 -39 c5
-40 2 -58 -10 -73 -21 -26 -33 -18 -49 31 -12 37 -12 42 10 71 13 17 28 30 34
28 5 -2 12 -28 15 -57z m271 -14 c100 -48 159 -132 159 -228 0 -46 -6 -64 -32
-104 -90 -134 -225 -149 -346 -39 -135 121 -116 311 38 380 44 19 131 15 181
-9z m-2616 -8 c149 -19 220 -22 572 -22 l402 -1 -6 -45 c-12 -98 -44 -272 -74
-410 -17 -80 -36 -168 -42 -197 -6 -29 -17 -55 -25 -58 -27 -10 -196 -25 -292
-25 -107 0 -127 7 -192 68 -24 22 -69 62 -100 88 -31 27 -150 130 -264 229
-114 99 -212 183 -217 186 -9 6 25 178 39 201 7 11 5 11 199 -14z m-3288 -30
c13 -12 23 -29 23 -39 0 -9 -30 -43 -66 -74 -52 -46 -63 -60 -51 -67 10 -5 40
4 88 27 82 39 98 41 138 21 50 -26 54 -39 22 -70 -23 -22 -33 -26 -48 -17 -15
7 -32 4 -72 -15 -29 -13 -66 -24 -82 -24 -25 0 -29 -4 -29 -27 -1 -31 -52
-218 -63 -229 -10 -10 -67 46 -67 66 0 9 11 54 25 101 36 119 28 126 -53 46
l-68 -67 -27 28 c-15 15 -27 33 -27 39 0 10 319 323 329 323 3 0 15 -10 28
-22z m5378 -212 c12 -36 -1 -56 -54 -80 -24 -12 -40 -25 -37 -32 3 -7 -2 -18
-10 -24 -22 -19 -46 6 -42 44 2 25 11 35 46 51 23 11 42 26 42 35 0 20 21 41
35 37 5 -2 14 -16 20 -31z m255 -159 c82 -87 150 -162 150 -166 0 -4 -15 -22
-34 -40 l-33 -32 -144 42 c-79 23 -150 44 -158 47 -8 3 24 -41 72 -98 48 -57
87 -107 87 -111 0 -9 -69 -64 -74 -58 -1 2 -66 83 -144 180 l-141 177 28 26
c15 14 33 26 41 26 7 0 75 -20 151 -45 76 -25 143 -45 149 -45 7 0 -29 44 -79
99 -50 54 -91 102 -91 107 0 14 44 55 57 52 7 -2 80 -74 163 -161z m-5331 84
c51 -26 99 -83 107 -126 15 -81 -12 -156 -85 -237 -82 -92 -166 -111 -258 -58
-126 72 -138 217 -28 339 84 92 183 123 264 82z m6289 -100 c-16 -45 -487
-517 -568 -570 -14 -8 -68 -50 -120 -91 -269 -213 -549 -394 -817 -529 l-83
-41 -132 0 -133 1 -39 39 -40 38 75 33 c103 45 356 175 464 239 142 83 395
253 456 307 31 26 118 99 194 162 75 62 205 182 289 266 l151 153 153 1 c89 1
152 -3 150 -8z m-5926 -171 c68 -44 127 -81 133 -83 11 -4 -224 -387 -242
-394 -19 -7 -75 30 -70 47 2 8 48 82 101 164 53 81 95 150 93 152 -2 2 -30 21
-63 42 l-60 39 -108 -153 c-59 -85 -112 -154 -119 -154 -7 1 -25 12 -41 25
l-30 24 25 34 c136 191 245 337 251 337 4 0 62 -36 130 -80z m4586 -45 c116
-153 136 -190 126 -240 -14 -74 -129 -165 -209 -165 -66 0 -98 29 -189 168
-118 181 -112 166 -70 192 19 12 37 21 39 19 2 -2 38 -56 80 -119 43 -63 87
-125 98 -137 28 -31 77 -30 116 2 59 51 56 61 -73 235 l-85 115 30 28 c16 15
33 27 37 27 4 -1 49 -57 100 -125z m-2930 -192 c148 -127 153 -133 118 -133
-14 0 -104 14 -201 30 -97 17 -178 30 -180 30 -7 0 53 86 70 100 8 7 15 20 15
29 0 27 30 62 45 54 7 -5 67 -54 133 -110z m-1418 92 c17 -9 30 -20 30 -26 0
-6 -19 -43 -42 -82 -22 -39 -37 -72 -32 -74 49 -18 133 -74 151 -102 59 -87
-14 -221 -119 -221 -45 0 -265 111 -260 131 6 23 227 388 235 389 4 0 21 -7
37 -15z m3865 -141 c39 -31 125 -97 193 -146 67 -50 122 -92 122 -94 0 -2 -18
-15 -41 -29 l-40 -26 -38 31 c-22 16 -43 30 -49 30 -5 0 -45 -20 -88 -44 l-78
-44 3 -54 2 -54 -40 -19 c-23 -10 -43 -16 -45 -14 -2 2 -9 83 -16 179 -6 96
-15 204 -20 240 -7 59 -6 67 12 83 31 26 47 21 123 -39z m-3418 -68 c61 -25
116 -46 122 -46 19 0 21 -18 6 -54 l-15 -35 -83 31 c-121 45 -120 45 -140 3
-9 -19 -17 -37 -17 -40 0 -2 37 -18 83 -35 96 -37 101 -41 93 -72 -13 -50 -17
-50 -112 -13 -49 19 -92 35 -97 35 -9 0 -46 -78 -47 -96 0 -6 46 -29 103 -49
56 -21 105 -41 109 -44 4 -3 -1 -23 -10 -43 l-17 -37 -125 48 c-69 26 -140 56
-157 65 l-32 16 56 118 c30 64 75 159 99 211 29 60 49 91 57 88 6 -3 62 -26
124 -51z m320 -112 c49 -15 98 -31 111 -37 31 -15 52 -57 52 -108 0 -34 -6
-47 -35 -76 -34 -34 -35 -37 -20 -59 21 -32 19 -93 -5 -131 -28 -47 -73 -67
-134 -59 -76 9 -249 65 -243 79 122 330 161 427 173 423 8 -3 53 -17 101 -32z"/>
<path d="M5168 9593 c-24 -6 -23 -23 2 -23 11 0 20 7 20 15 0 8 -1 14 -2 14
-2 -1 -11 -3 -20 -6z"/>
<path d="M5110 9510 c0 -5 4 -10 9 -10 6 0 13 5 16 10 3 6 -1 10 -9 10 -9 0
-16 -4 -16 -10z"/>
<path d="M6371 9348 c0 -7 11 -40 23 -73 26 -67 33 -61 38 28 l3 57 -32 0
c-20 0 -33 -5 -32 -12z"/>
<path d="M3964 9333 c2 -10 10 -51 17 -91 7 -39 14 -70 16 -68 2 2 14 42 27
90 l24 86 -45 0 c-37 0 -44 -3 -39 -17z"/>
<path d="M5465 9296 l7 -54 -43 0 c-74 1 -79 -1 -79 -22 0 -11 -5 -29 -12 -40
-7 -10 -9 -22 -6 -26 4 -3 73 -3 154 1 140 7 146 8 121 23 -23 14 -27 24 -33
94 l-7 78 -54 0 -54 0 6 -54z"/>
<path d="M4995 9283 c-3 -32 -8 -77 -10 -100 l-5 -43 94 0 c52 0 100 -2 108
-5 7 -3 20 -1 28 5 13 8 13 13 -3 39 -9 16 -17 36 -17 45 0 11 -9 14 -36 12
-19 -1 -37 1 -40 6 -3 4 -13 4 -23 -2 -16 -8 -20 -5 -25 22 -3 17 -6 41 -6 54
0 20 -5 24 -29 24 -29 0 -30 -2 -36 -57z"/>
<path d="M8236 8161 c-32 -34 -60 -116 -76 -229 -18 -122 0 -182 54 -182 60 0
104 72 131 211 19 105 19 178 -1 207 -23 33 -73 30 -108 -7z"/>
<path d="M8961 8184 c-41 -29 -66 -125 -43 -162 21 -33 124 -36 150 -4 18 23
16 133 -4 160 -18 27 -69 30 -103 6z"/>
<path d="M1995 8175 c-83 -30 -145 -140 -148 -265 -2 -84 21 -129 78 -149 124
-42 245 95 245 278 0 112 -76 171 -175 136z"/>
<path d="M3173 8169 c-67 -33 -114 -117 -128 -231 -23 -181 130 -255 247 -119
61 71 90 240 53 311 -30 59 -100 75 -172 39z"/>
<path d="M3289 7353 c-13 -16 -12 -17 4 -4 9 7 17 15 17 17 0 8 -8 3 -21 -13z"/>
<path d="M3187 7266 c-51 -31 -315 -284 -333 -318 -20 -39 -18 -57 7 -51 18 5
20 2 17 -33 -3 -35 0 -40 37 -61 63 -36 68 -33 88 56 10 43 25 85 35 94 9 8
44 23 77 32 234 65 423 108 515 119 83 10 88 18 39 57 -24 19 -52 33 -63 31
-112 -16 -377 -71 -458 -96 -35 -10 -48 -11 -48 -3 0 13 36 70 92 146 21 28
37 51 35 51 -1 0 -19 -11 -40 -24z"/>
<path d="M6930 7215 c0 -11 11 -15 36 -15 31 0 35 2 24 15 -7 8 -23 15 -36 15
-15 0 -24 -6 -24 -15z"/>
<path d="M7369 7099 c-30 -30 -23 -73 14 -77 37 -4 67 23 67 58 0 43 -46 54
-81 19z"/>
<path d="M2850 6432 c0 -34 -4 -40 -37 -56 -101 -48 -493 -300 -493 -317 0 -6
6 -9 13 -6 7 3 31 -10 52 -27 l38 -33 176 117 c179 118 271 174 275 168 1 -1
21 -61 45 -133 28 -84 66 -171 108 -245 94 -168 85 -160 133 -116 22 20 48 36
58 36 33 0 32 11 -7 69 -56 82 -127 229 -162 334 -17 51 -37 104 -45 118 -14
27 -92 97 -131 118 -22 11 -23 10 -23 -27z"/>
<path d="M8760 6830 c-8 -15 -4 -34 16 -85 14 -36 31 -65 37 -65 20 0 77 24
77 32 0 5 -13 38 -29 73 -27 59 -32 65 -60 65 -20 0 -34 -7 -41 -20z"/>
<path d="M8995 6491 c-60 -27 -90 -65 -90 -111 0 -51 30 -91 81 -109 35 -12
46 -12 98 3 78 23 116 60 116 115 0 81 -40 121 -122 121 -24 0 -61 -9 -83 -19z"/>
<path d="M1067 6073 c-36 -129 -30 -166 26 -161 30 3 33 7 49 63 24 88 23 93
-19 104 -50 14 -51 14 -56 -6z"/>
<path d="M6304 5637 c-16 -33 -16 -37 2 -76 12 -25 26 -41 37 -41 16 0 18 8
15 72 -2 60 -6 73 -20 76 -12 2 -23 -8 -34 -31z"/>
<path d="M6326 4903 c-14 -14 -4 -29 28 -47 35 -19 56 -15 56 10 0 8 -2 14 -4
14 -2 0 -19 7 -39 15 -19 8 -37 11 -41 8z"/>
<path d="M6221 4813 c-14 -76 -14 -87 -5 -158 12 -98 42 -85 49 22 3 39 11 86
19 104 14 37 12 54 -12 82 -27 31 -39 20 -51 -50z"/>
<path d="M5160 4840 c0 -69 119 -170 200 -170 49 0 36 25 -27 51 -64 26 -117
68 -139 110 -17 34 -34 38 -34 9z"/>
<path d="M6322 4708 c2 -22 9 -34 21 -36 23 -5 24 53 1 62 -24 9 -25 8 -22
-26z"/>
<path d="M5971 4701 c-7 -5 -11 -13 -7 -19 8 -13 142 -46 161 -38 30 11 13 26
-54 46 -77 23 -81 23 -100 11z"/>
<path d="M5343 4423 c-24 -9 -14 -40 17 -53 17 -7 40 -24 51 -39 20 -25 21
-25 35 -7 12 17 12 23 0 40 -16 25 -86 65 -103 59z"/>
<path d="M5230 4385 c0 -8 6 -15 13 -15 7 0 29 -9 50 -20 43 -23 50 -9 11 26
-28 27 -74 32 -74 9z"/>
<path d="M5367 4262 c-30 -32 -34 -42 -13 -42 13 0 56 49 56 64 0 13 -18 4
-43 -22z"/>
<path d="M4513 3910 c-25 -10 -49 -49 -36 -60 4 -4 32 -6 61 -3 58 6 68 24 32
56 -23 19 -26 19 -57 7z"/>
<path d="M4247 3863 c-11 -11 -8 -71 4 -79 16 -10 29 8 36 49 5 32 3 37 -14
37 -11 0 -23 -3 -26 -7z"/>
<path d="M4278 3634 c-33 -40 -48 -74 -33 -74 29 0 105 81 105 111 0 23 -39 3
-72 -37z"/>
<path d="M5118 3605 c5 -28 23 -32 43 -9 10 13 10 17 -2 25 -28 18 -47 11 -41
-16z"/>
<path d="M5254 3598 c-11 -17 9 -28 47 -28 55 0 54 27 -2 32 -22 2 -43 0 -45
-4z"/>
<path d="M3903 3533 c-20 -8 -15 -20 11 -27 13 -3 38 -22 55 -41 30 -34 64
-45 76 -25 7 12 -10 41 -44 78 -21 21 -66 28 -98 15z"/>
<path d="M3692 3481 c-21 -26 -29 -45 -25 -60 3 -11 9 -21 13 -21 4 0 20 -16
35 -35 l27 -36 -26 -20 c-40 -32 -34 -51 13 -43 36 6 40 4 55 -24 33 -63 15
-132 -34 -132 -44 0 -74 43 -66 98 4 33 2 42 -9 42 -24 0 -38 -39 -31 -87 3
-25 9 -50 13 -56 5 -7 8 -21 8 -32 0 -28 39 -31 71 -6 15 12 39 21 54 21 22 0
30 6 39 31 14 41 14 164 0 191 -9 17 -8 24 9 37 12 10 22 34 27 64 6 43 4 48
-11 45 -10 -1 -22 -16 -27 -33 -13 -42 -26 -55 -51 -55 -17 0 -25 10 -35 48
-8 26 -13 59 -12 75 2 15 1 27 -2 27 -2 0 -18 -17 -35 -39z"/>
<path d="M5020 3460 c-12 -7 -7 -12 20 -24 43 -18 61 -9 31 16 -26 21 -30 21
-51 8z"/>
<path d="M3880 3450 c0 -5 5 -10 10 -10 6 0 16 -12 22 -27 7 -16 25 -43 41
-62 26 -31 29 -39 23 -82 -8 -55 2 -66 44 -49 25 10 33 9 53 -6 13 -11 50 -38
81 -62 71 -54 76 -84 18 -107 -28 -11 -42 -25 -50 -49 -16 -43 -15 -56 2 -56
9 0 16 12 18 33 3 32 4 32 61 35 31 2 57 7 57 12 0 20 53 9 93 -19 65 -44 117
-68 219 -100 171 -55 318 -78 318 -51 0 6 -15 10 -32 10 -18 0 -49 5 -68 10
-173 47 -226 63 -299 94 -47 20 -99 49 -115 65 -17 16 -41 34 -53 40 -32 16
-29 45 11 88 23 26 36 52 40 83 4 25 9 56 12 71 4 23 1 26 -46 38 -35 9 -57
22 -72 42 -22 30 -42 37 -53 18 -7 -10 -2 -16 86 -103 51 -51 57 -69 35 -98
-21 -29 -38 -22 -109 45 -70 66 -75 75 -55 106 12 20 5 51 -12 51 -14 0 -40
-61 -40 -93 0 -16 21 -45 60 -85 56 -58 74 -92 49 -92 -20 0 -98 60 -130 100
-19 23 -41 40 -53 40 -18 1 -16 3 9 17 39 21 38 18 30 43 -7 21 -7 21 -27 3
-19 -17 -21 -17 -49 17 -56 66 -94 100 -111 100 -10 0 -18 -4 -18 -10z"/>
<path d="M3877 3204 c-15 -15 -6 -52 18 -78 14 -15 25 -35 25 -46 0 -19 56
-92 93 -122 23 -18 57 -24 57 -10 0 5 -20 29 -45 54 -33 33 -45 54 -45 75 0
24 -7 33 -34 46 -27 13 -35 23 -38 48 -3 32 -17 46 -31 33z"/>
<path d="M3727 3043 c-14 -13 -7 -42 13 -56 11 -8 25 -28 31 -46 6 -18 24 -38
40 -46 20 -11 32 -27 39 -55 6 -24 17 -40 26 -40 22 0 88 -36 141 -76 25 -19
64 -44 87 -56 23 -11 53 -31 68 -43 14 -12 50 -31 78 -41 39 -14 50 -22 47
-36 -6 -22 15 -40 37 -32 8 3 29 1 46 -5 26 -9 34 -7 50 9 11 11 20 26 20 33
0 7 18 33 41 57 23 25 45 57 51 72 11 32 39 43 68 28 12 -6 29 -9 38 -7 14 4
13 5 -3 6 -11 1 -29 8 -39 16 -11 8 -32 15 -48 15 -22 0 -28 -5 -28 -21 0 -12
-17 -41 -37 -63 -21 -23 -48 -55 -59 -72 -22 -29 -22 -29 -52 -11 -16 9 -43
17 -59 17 -27 0 -138 60 -235 128 -26 17 -51 32 -57 32 -16 0 -208 195 -239
243 -35 54 -50 66 -65 50z"/>
<path d="M4470 3031 c0 -13 22 -29 53 -36 36 -10 38 21 1 35 -32 12 -54 13
-54 1z"/>
<path d="M4260 2985 c0 -9 -7 -30 -16 -47 -15 -29 -18 -30 -61 -24 -38 5 -44
4 -34 -8 19 -22 63 -26 91 -8 14 9 39 22 57 28 33 11 36 10 126 -46 9 -6 17
-7 17 -3 0 12 -60 58 -107 82 -23 11 -44 25 -48 31 -9 15 -25 12 -25 -5z"/>
<path d="M3660 2958 c0 -7 4 -19 9 -27 8 -13 12 -13 26 -1 16 13 16 15 -1 27
-22 16 -34 17 -34 1z"/>
<path d="M4480 2530 c0 -18 51 -31 79 -22 l26 10 -28 11 c-35 14 -77 14 -77 1z"/>
<path d="M4317 2473 c-4 -5 10 -17 29 -26 31 -15 35 -15 41 -2 3 9 3 18 1 20
-10 11 -66 16 -71 8z"/>
<path d="M4739 2398 c-1 -2 -2 -20 -3 -40 -3 -42 18 -53 28 -15 10 37 7 57 -9
57 -8 0 -15 -1 -16 -2z"/>
<path d="M4667 2314 c-3 -3 -4 -19 0 -34 4 -22 0 -31 -16 -39 -12 -7 -21 -18
-21 -26 0 -7 -11 -27 -25 -43 -22 -27 -24 -42 -4 -42 17 0 110 142 107 163 -3
21 -28 34 -41 21z"/>
<path d="M4556 2251 c-7 -10 17 -21 45 -21 10 0 19 7 19 15 0 17 -55 22 -64 6z"/>
<path d="M4527 2123 c-12 -21 -15 -60 -7 -73 9 -13 13 -11 30 10 23 29 22 63
-2 68 -9 2 -18 -1 -21 -5z"/>
<path d="M3928 2040 c-25 -19 -55 -80 -40 -80 10 1 75 91 69 96 -2 2 -15 -5
-29 -16z"/>
<path d="M4450 2011 c0 -17 -4 -31 -10 -31 -13 0 -13 -27 0 -35 15 -9 60 47
57 70 -1 12 -11 21 -24 23 -20 3 -23 -1 -23 -27z"/>
<path d="M4362 1859 c2 -6 8 -10 13 -10 5 0 11 4 13 10 2 6 -4 11 -13 11 -9 0
-15 -5 -13 -11z"/>
<path d="M4933 1618 c-47 -52 -55 -94 -23 -123 16 -15 22 -15 35 -5 19 16 19
36 0 44 -13 4 -12 12 5 51 11 26 20 49 20 51 0 11 -19 2 -37 -18z"/>
<path d="M5842 1528 c-13 -21 -22 -45 -20 -54 5 -25 50 42 46 69 -3 20 -6 18
-26 -15z"/>
<path d="M5747 1403 c-17 -26 -60 -74 -94 -107 -35 -32 -63 -63 -63 -68 0 -14
-40 -65 -92 -118 -27 -26 -48 -55 -48 -64 0 -10 4 -15 10 -11 8 5 296 342 339
398 12 15 11 17 -3 17 -9 0 -31 -21 -49 -47z"/>
<path d="M6287 962 c-21 -23 -21 -32 -1 -32 16 0 43 27 44 43 0 14 -27 7 -43
-11z"/>
<path d="M6226 898 c-18 -26 -21 -51 -5 -46 5 2 19 18 30 36 18 27 18 32 6 32
-9 0 -23 -10 -31 -22z"/>
<path d="M6141 805 c-22 -24 -41 -49 -41 -55 0 -21 26 -8 56 28 41 50 46 60
35 66 -5 3 -27 -14 -50 -39z"/>
<path d="M6058 709 c-10 -5 -18 -15 -18 -21 0 -6 -16 -26 -35 -44 -33 -30 -47
-64 -26 -64 11 0 83 85 100 118 13 24 6 27 -21 11z"/>
<path d="M9020 3991 l-35 -6 58 -44 c32 -24 59 -42 61 -40 6 8 26 72 26 85 0
15 -45 17 -110 5z"/>
<path d="M1691 2884 l-52 -35 17 -27 c46 -74 86 -90 124 -52 27 27 25 57 -8
107 l-28 42 -53 -35z"/>
<path d="M1873 2564 c-41 -21 -100 -85 -109 -119 -16 -64 35 -129 100 -129 41
0 104 39 142 90 78 102 -17 215 -133 158z"/>
<path d="M7989 2321 c-30 -30 -39 -47 -39 -72 0 -48 30 -98 79 -136 34 -26 52
-33 88 -33 40 0 50 5 85 40 38 38 40 43 35 86 -4 36 -13 55 -43 86 -80 82
-143 91 -205 29z"/>
<path d="M2464 2023 c-34 -7 -100 -69 -123 -116 -27 -55 -20 -98 21 -132 46
-39 98 -34 149 12 98 89 104 191 13 229 -18 8 -35 13 -36 13 -2 -1 -13 -4 -24
-6z"/>
<path d="M3045 1380 l-25 -49 45 -27 c62 -36 102 -37 128 -2 19 25 19 28 3 52
-13 21 -101 76 -120 76 -3 0 -17 -22 -31 -50z"/>
<path d="M6995 1399 c4 -41 8 -75 10 -77 3 -3 95 49 95 55 0 4 -38 38 -88 77
l-24 19 7 -74z"/>
<path d="M3870 1265 c-26 -68 -25 -71 24 -84 70 -17 95 -14 108 13 19 44 -7
69 -95 90 -23 5 -29 3 -37 -19z"/>
<path d="M3798 1060 l-16 -49 53 -16 c29 -8 64 -15 78 -15 49 0 74 52 42 84
-15 14 -104 46 -130 46 -6 0 -18 -22 -27 -50z"/>
</g>
</svg>
